<svg xmlns="http://www.w3.org/2000/svg" viewBox="0 0 520 200" role="img" aria-label="Weekly views growth curve">
  <rect width="520" height="200" fill="#ffffff"/>
  <g stroke="#eef0f4" stroke-width="1">
    <line x1="30" y1="40" x2="500" y2="40"/>
    <line x1="30" y1="90" x2="500" y2="90"/>
    <line x1="30" y1="140" x2="500" y2="140"/>
    <line x1="30" y1="185" x2="500" y2="185"/>
  </g>
  <path d="M30 175 L97 168 L164 155 L231 135 L298 105 L365 72 L432 42 L500 18 L500 185 L30 185 Z" fill="#4b54ff" fill-opacity="0.12"/>
  <path d="M30 175 L97 168 L164 155 L231 135 L298 105 L365 72 L432 42 L500 18" fill="none" stroke="#4b54ff" stroke-width="2.5" stroke-linejoin="round"/>
  <g fill="#4b54ff">
    <circle cx="30" cy="175" r="3"/><circle cx="97" cy="168" r="3"/><circle cx="164" cy="155" r="3"/><circle cx="231" cy="135" r="3"/>
    <circle cx="298" cy="105" r="3"/><circle cx="365" cy="72" r="3"/><circle cx="432" cy="42" r="3"/><circle cx="500" cy="18" r="3"/>
  </g>
  <g fill="#5b6473" font-family="monospace" font-size="11">
    <text x="30" y="197">w1</text><text x="247" y="197">w6</text><text x="486" y="197">w12</text>
  </g>
</svg>
